<svg width="64" height="65" viewBox="0 0 64 65" fill="none" xmlns="http://www.w3.org/2000/svg">
<path d="M31.9999 6.26588C40.5443 6.26588 41.5563 6.2984 44.9306 6.45235C48.0506 6.59475 49.745 7.11606 50.8727 7.55416C52.3662 8.13466 53.4324 8.82821 54.5521 9.94793C55.6718 11.0677 56.3653 12.1338 56.9457 13.6273C57.3839 14.755 57.9053 16.4494 58.0476 19.5693C58.2016 22.9437 58.2341 23.9557 58.2341 32.5001C58.2341 41.0445 58.2016 42.0565 58.0476 45.4307C57.9053 48.5507 57.3839 50.2451 56.9457 51.3728C56.3653 52.8664 55.6718 53.9325 54.5521 55.0522C53.4324 56.1719 52.3662 56.8655 50.8727 57.4458C49.745 57.8841 48.0506 58.4054 44.9306 58.5478C41.5569 58.7017 40.5449 58.7342 31.9999 58.7342C23.455 58.7342 22.443 58.7017 19.0693 58.5478C15.9493 58.4054 14.2549 57.8841 13.1273 57.4458C11.6336 56.8655 10.5675 56.1719 9.44781 55.0522C8.32809 53.9325 7.63454 52.8664 7.05416 51.3728C6.61593 50.2451 6.09462 48.5507 5.95223 45.4309C5.79827 42.0565 5.76576 41.0445 5.76576 32.5001C5.76576 23.9557 5.79827 22.9437 5.95223 19.5694C6.09462 16.4494 6.61593 14.755 7.05416 13.6273C7.63454 12.1338 8.32809 11.0677 9.44781 9.94793C10.5675 8.82821 11.6336 8.13466 13.1273 7.55416C14.2549 7.11606 15.9493 6.59475 19.0691 6.45235C22.4435 6.2984 23.4555 6.26588 31.9999 6.26588ZM31.9999 0.5C23.3092 0.5 22.2196 0.536837 18.8064 0.692569C15.4003 0.848046 13.0742 1.38892 11.0387 2.18002C8.93437 2.9978 7.14981 4.09199 5.37084 5.87096C3.59186 7.64994 2.49768 9.4345 1.6799 11.5388C0.888788 13.5743 0.347919 15.9004 0.192442 19.3066C0.03671 22.7196 0 23.8093 0 32.5001C0 41.1908 0.03671 42.2805 0.192442 45.6936C0.347919 49.0997 0.888788 51.4258 1.6799 53.4613C2.49768 55.5655 3.59186 57.3502 5.37084 59.1292C7.14981 60.9081 8.93437 62.0023 11.0387 62.8201C13.0742 63.6112 15.4003 64.1521 18.8064 64.3076C22.2196 64.4633 23.3092 64.5 31.9999 64.5C40.6907 64.5 41.7804 64.4633 45.1934 64.3076C48.5996 64.1521 50.9257 63.6112 52.9612 62.8201C55.0655 62.0023 56.8501 60.9081 58.629 59.1292C60.408 57.3502 61.5022 55.5656 62.32 53.4613C63.1111 51.4258 63.652 49.0997 63.8074 45.6936C63.9632 42.2805 64 41.1908 64 32.5001C64 23.8093 63.9632 22.7196 63.8074 19.3066C63.652 15.9004 63.1111 13.5743 62.32 11.5388C61.5022 9.4345 60.408 7.64994 58.629 5.87096C56.8501 4.09199 55.0655 2.9978 52.9612 2.18002C50.9257 1.38892 48.5996 0.848046 45.1934 0.692569C41.7804 0.536837 40.6907 0.5 31.9999 0.5ZM31.9999 16.0676C22.9246 16.0676 15.5675 23.4247 15.5675 32.5001C15.5675 41.5754 22.9246 48.9325 31.9999 48.9325C41.0753 48.9325 48.4324 41.5754 48.4324 32.5001C48.4324 23.4247 41.0753 16.0676 31.9999 16.0676ZM31.9999 43.1668C26.1089 43.1668 21.3332 38.3911 21.3332 32.5001C21.3332 26.6091 26.1089 21.8333 31.9999 21.8333C37.8909 21.8333 42.6667 26.6091 42.6667 32.5001C42.6667 38.3911 37.8909 43.1668 31.9999 43.1668ZM52.9216 15.4184C52.9216 17.5392 51.2024 19.2584 49.0816 19.2584C46.9608 19.2584 45.2416 17.5392 45.2416 15.4184C45.2416 13.2976 46.9608 11.5784 49.0816 11.5784C51.2024 11.5784 52.9216 13.2976 52.9216 15.4184Z" fill="#222121"/>
</svg>
