<svg width="64" height="65" viewBox="0 0 64 65" fill="none" xmlns="http://www.w3.org/2000/svg">
<path d="M30.7068 0.537012C13.8045 1.3418 0.466145 15.4182 0.51742 32.3396C0.533032 37.4935 1.77726 42.3581 3.97215 46.6563L0.602216 63.0144C0.419921 63.8992 1.21798 64.674 2.09701 64.4658L18.126 60.6683C22.2441 62.7196 26.8696 63.9044 31.7649 63.9791C49.0407 64.243 63.4457 50.5255 63.9842 33.2562C64.5613 14.7446 49.2831 -0.347678 30.7068 0.537012ZM49.8328 49.8156C45.1386 54.5099 38.8972 57.0951 32.2587 57.0951C28.3715 57.0951 24.65 56.2229 21.1971 54.503L18.9649 53.391L9.13749 55.7193L11.2061 45.6775L10.1064 43.5239C8.31387 40.0135 7.40499 36.2174 7.40499 32.2414C7.40499 25.6027 9.99019 19.3615 14.6844 14.6671C19.3367 10.0148 25.6798 7.38755 32.2591 7.38755C38.8977 7.3877 45.1387 9.97289 49.8329 14.667C54.5272 19.3612 57.1123 25.6024 57.1125 32.2409C57.1123 38.8204 54.4851 45.1635 49.8328 49.8156Z" fill="#222121"/>
<path d="M47.6633 39.125L41.515 37.3596C40.7067 37.1275 39.8363 37.3568 39.2473 37.9569L37.7438 39.4888C37.1098 40.1347 36.1478 40.3422 35.3087 40.0028C32.4003 38.8257 26.2821 33.3859 24.7197 30.665C24.2689 29.8801 24.3435 28.8988 24.8969 28.1826L26.2096 26.4844C26.7239 25.8191 26.8324 24.9255 26.4923 24.1564L23.9056 18.306C23.286 16.9047 21.4953 16.4968 20.3255 17.4862C18.6095 18.9375 16.5735 21.1429 16.326 23.5862C15.8896 27.894 17.7371 33.3243 24.7232 39.8446C32.7941 47.3775 39.2572 48.3727 43.4653 47.3533C45.8521 46.7752 47.7596 44.4576 48.9634 42.5599C49.7841 41.2661 49.1361 39.5479 47.6633 39.125Z" fill="#222121"/>
</svg>
